Coordinates
version=1
nRows=32
nColumns=12
inDegrees=yes

Units are S.I. units (second, meters, Newtons, ...)
Angles are in degrees

endheader
time	SC_y	SC_z	SC_x	AC_y	AC_z	AC_x	GH_y	GH_z	GH_yy	EL_x	PS_y
       0.0              -17.05          12.88          45.29          61.53         -6.895        0.09216         -155.6           62.8          27.65          135.9          144.7
  0.009886              -17.05          12.88          45.29          61.53         -6.896        0.09341         -155.6          62.79          27.63          135.9          144.7
   0.01977              -17.05          12.88          45.29          61.52         -6.898        0.09473         -155.5          62.79          27.61          135.9          144.6
   0.02966              -17.05          12.89          45.29          61.52           -6.9        0.09614         -155.5          62.78          27.59          135.9          144.6
   0.03954              -17.05          12.89          45.29          61.52         -6.902        0.09764         -155.4          62.78          27.56          135.9          144.6
   0.04943              -17.05          12.89          45.29          61.51         -6.904        0.09924         -155.4          62.77          27.54          135.9          144.6
   0.05932              -17.04           12.9          45.29          61.51         -6.906         0.1009         -155.3          62.76          27.51          135.9          144.6
    0.0692              -17.04           12.9          45.29           61.5         -6.908         0.1028         -155.2          62.75          27.48          135.9          144.6
   0.07909              -17.04           12.9          45.29           61.5          -6.91         0.1047         -155.2          62.74          27.45          135.8          144.6
   0.08897              -17.04          12.91          45.29          61.49         -6.913         0.1068         -155.1          62.74          27.41          135.8          144.6
   0.09886              -17.04          12.91           45.3          61.48         -6.916         0.1091         -155.0          62.73          27.38          135.8          144.5
    0.1087              -17.04          12.92           45.3          61.48         -6.919         0.1115         -154.9          62.71          27.34          135.8          144.5
    0.1186              -17.04          12.92           45.3          61.47         -6.922         0.1141         -154.8           62.7          27.29          135.8          144.5
    0.1285              -17.04          12.93           45.3          61.46         -6.925         0.1169         -154.7          62.69          27.25          135.8          144.5
    0.1384              -17.04          12.93           45.3          61.45         -6.929           0.12         -154.6          62.68           27.2          135.7          144.4
    0.1483              -17.04          12.94           45.3          61.44         -6.933         0.1233         -154.5          62.66          27.14          135.7          144.4
    0.1582              -17.04          12.95           45.3          61.43         -6.938         0.1269         -154.3          62.65          27.08          135.7          144.4
    0.1681              -17.04          12.96           45.3          61.42         -6.943         0.1308         -154.2          62.63          27.02          135.7          144.4
    0.1779              -17.04          12.97           45.3          61.41         -6.948         0.1351         -154.0          62.61          26.95          135.6          144.3
    0.1878              -17.04          12.97           45.3          61.39         -6.954         0.1398         -153.8          62.59          26.87          135.6          144.3
    0.1977              -17.04          12.99           45.3          61.38          -6.96         0.1449         -153.6          62.57          26.79          135.6          144.2
    0.2076              -17.04           13.0           45.3          61.36         -6.967         0.1506         -153.4          62.54          26.69          135.5          144.2
    0.2175              -17.03          13.01           45.3          61.34         -6.975         0.1568         -153.2          62.52          26.59          135.5          144.2
    0.2274              -17.03          13.02           45.3          61.32         -6.983         0.1638         -152.9          62.49          26.48          135.5          144.1
    0.2373              -17.03          13.04           45.3           61.3         -6.993         0.1715         -152.6          62.45          26.35          135.4          144.0
    0.2472              -17.03          13.06           45.3          61.28         -7.003         0.1801         -152.3          62.41          26.21          135.4          144.0
     0.257              -17.03          13.08           45.3          61.25         -7.015         0.1897         -151.9          62.37          26.05          135.3          143.9
    0.2669              -17.03           13.1          45.31          61.22         -7.029         0.2005         -151.5          62.32          25.87          135.2          143.8
    0.2768              -17.02          13.12          45.31          61.18         -7.044         0.2128         -151.1          62.27          25.67          135.1          143.7
    0.2867              -17.02          13.15          45.31          61.14         -7.061         0.2267         -150.5          62.21          25.44          135.0          143.6
    0.2966              -17.02          13.19          45.31          61.09         -7.081         0.2425         -149.9          62.14          25.18          134.9          143.5
    0.3065              -17.01          13.22          45.31          61.04         -7.103         0.2608         -149.2          62.06          24.88          134.8          143.3
